<svg xmlns="http://www.w3.org/2000/svg" width="1920" height="1080" viewBox="0 0 1920 1080" font-family="Helvetica Neue, Helvetica, Arial, sans-serif">
  <defs>
    <marker id="a" viewBox="0 0 10 10" refX="9" refY="5" markerWidth="7" markerHeight="7" orient="auto-start-reverse"><path d="M0,0 L10,5 L0,10 z" fill="#475569"/></marker>
    <marker id="ag" viewBox="0 0 10 10" refX="9" refY="5" markerWidth="7" markerHeight="7" orient="auto"><path d="M0,0 L10,5 L0,10 z" fill="#2E8B57"/></marker>
    <marker id="ab" viewBox="0 0 10 10" refX="9" refY="5" markerWidth="7" markerHeight="7" orient="auto"><path d="M0,0 L10,5 L0,10 z" fill="#2F6FD6"/></marker>
    <marker id="aa" viewBox="0 0 10 10" refX="9" refY="5" markerWidth="7" markerHeight="7" orient="auto"><path d="M0,0 L10,5 L0,10 z" fill="#C77A0A"/></marker>
  </defs>
  <rect width="1920" height="1080" fill="#F7F6F2"/>

  <text x="60" y="92" font-size="44" font-weight="700" fill="#111827">Support that compiles itself</text>
  <text x="60" y="132" font-size="24" fill="#64748B">Every ticket takes the cheapest route that works</text>

  <!-- Customer -->
  <rect x="60" y="470" width="250" height="140" rx="18" fill="#FFFFFF" stroke="#CBD5E1" stroke-width="2"/>
  <text x="185" y="532" text-anchor="middle" font-size="30" font-weight="700" fill="#111827">Customer</text>
  <text x="185" y="568" text-anchor="middle" font-size="30" font-weight="700" fill="#111827">message</text>
  <line x1="310" y1="540" x2="372" y2="540" stroke="#475569" stroke-width="3" marker-end="url(#a)"/>

  <!-- River -->
  <rect x="380" y="420" width="320" height="240" rx="20" fill="#1F2937"/>
  <text x="540" y="478" text-anchor="middle" font-size="40" font-weight="700" fill="#FFFFFF">River</text>
  <text x="540" y="516" text-anchor="middle" font-size="22" fill="#CBD5E1">fine-tuned router</text>
  <text x="540" y="560" text-anchor="middle" font-size="22" fill="#CBD5E1">standardized request</text>
  <rect x="440" y="584" width="200" height="46" rx="23" fill="#374151"/>
  <text x="540" y="615" text-anchor="middle" font-size="22" font-weight="700" fill="#FFFFFF">77% held-out</text>

  <!-- fork -->
  <path d="M700,540 C745,540 740,300 780,300" fill="none" stroke="#2E8B57" stroke-width="3" marker-end="url(#ag)"/>
  <path d="M700,540 L780,540" fill="none" stroke="#2F6FD6" stroke-width="3" marker-end="url(#ab)"/>
  <path d="M700,540 C745,540 740,805 780,805" fill="none" stroke="#C77A0A" stroke-width="3" marker-end="url(#aa)"/>

  <!-- COMPILED lane -->
  <rect x="785" y="195" width="930" height="170" rx="20" fill="#E8F5EE" stroke="#2E8B57" stroke-width="2"/>
  <text x="815" y="232" font-size="24" font-weight="700" letter-spacing="3" fill="#2E8B57">COMPILED</text>
  <rect x="1500" y="210" width="195" height="36" rx="18" fill="#2E8B57"/>
  <text x="1597" y="235" text-anchor="middle" font-size="20" font-weight="700" fill="#FFFFFF">0 model calls</text>
  <rect x="815" y="258" width="280" height="90" rx="14" fill="#FFFFFF" stroke="#2E8B57" stroke-width="2"/>
  <text x="955" y="296" text-anchor="middle" font-size="28" font-weight="700" fill="#111827">JSON plan</text>
  <text x="955" y="328" text-anchor="middle" font-size="20" fill="#475569">deterministic</text>
  <line x1="1095" y1="303" x2="1163" y2="303" stroke="#2E8B57" stroke-width="3" marker-end="url(#ag)"/>
  <rect x="1170" y="258" width="220" height="90" rx="14" fill="#FFFFFF" stroke="#2E8B57" stroke-width="2"/>
  <text x="1280" y="313" text-anchor="middle" font-size="28" font-weight="700" fill="#111827">Tools</text>
  <line x1="1390" y1="303" x2="1458" y2="303" stroke="#2E8B57" stroke-width="3" marker-end="url(#ag)"/>
  <rect x="1465" y="258" width="230" height="90" rx="14" fill="#FFFFFF" stroke="#2E8B57" stroke-width="2"/>
  <text x="1580" y="313" text-anchor="middle" font-size="28" font-weight="700" fill="#111827">Reply</text>

  <!-- RECALLED lane -->
  <rect x="785" y="440" width="930" height="170" rx="20" fill="#E9F0FC" stroke="#2F6FD6" stroke-width="2"/>
  <text x="815" y="477" font-size="24" font-weight="700" letter-spacing="3" fill="#2F6FD6">RECALLED</text>
  <rect x="815" y="503" width="280" height="90" rx="14" fill="#FFFFFF" stroke="#2F6FD6" stroke-width="2"/>
  <text x="955" y="541" text-anchor="middle" font-size="28" font-weight="700" fill="#111827">Memorable</text>
  <text x="955" y="573" text-anchor="middle" font-size="20" fill="#475569">learned path</text>
  <line x1="1095" y1="548" x2="1163" y2="548" stroke="#2F6FD6" stroke-width="3" marker-end="url(#ab)"/>
  <rect x="1170" y="503" width="280" height="90" rx="14" fill="#FFFFFF" stroke="#2F6FD6" stroke-width="2"/>
  <text x="1310" y="541" text-anchor="middle" font-size="28" font-weight="700" fill="#111827">QM agent</text>
  <text x="1310" y="573" text-anchor="middle" font-size="20" fill="#475569">Claude, low effort</text>
  <line x1="1450" y1="548" x2="1508" y2="548" stroke="#2F6FD6" stroke-width="3" marker-end="url(#ab)"/>
  <rect x="1515" y="503" width="180" height="90" rx="14" fill="#FFFFFF" stroke="#2F6FD6" stroke-width="2"/>
  <text x="1605" y="558" text-anchor="middle" font-size="28" font-weight="700" fill="#111827">Reply</text>

  <!-- EXPLORED lane -->
  <rect x="785" y="690" width="930" height="220" rx="20" fill="#FCF3E3" stroke="#C77A0A" stroke-width="2"/>
  <text x="815" y="727" font-size="24" font-weight="700" letter-spacing="3" fill="#C77A0A">EXPLORED</text>
  <rect x="815" y="760" width="210" height="90" rx="14" fill="#FFFFFF" stroke="#C77A0A" stroke-width="2"/>
  <text x="920" y="798" text-anchor="middle" font-size="28" font-weight="700" fill="#111827">QM agent</text>
  <text x="920" y="830" text-anchor="middle" font-size="20" fill="#475569">Claude</text>
  <line x1="1025" y1="805" x2="1063" y2="805" stroke="#C77A0A" stroke-width="3" marker-end="url(#aa)"/>
  <text x="1049" y="790" text-anchor="middle" font-size="16" fill="#8A5A10"></text>
  <rect x="1070" y="742" width="400" height="150" rx="16" fill="none" stroke="#C77A0A" stroke-width="2" stroke-dasharray="8 6"/>
  <text x="1270" y="768" text-anchor="middle" font-size="18" fill="#8A5A10">explores with</text>
  <rect x="1085" y="782" width="190" height="96" rx="14" fill="#FFFFFF" stroke="#C77A0A" stroke-width="2"/>
  <text x="1180" y="823" text-anchor="middle" font-size="28" font-weight="700" fill="#111827">GBrain</text>
  <text x="1180" y="855" text-anchor="middle" font-size="18" fill="#475569">company knowledge</text>
  <rect x="1290" y="782" width="165" height="96" rx="14" fill="#FFFFFF" stroke="#C77A0A" stroke-width="2"/>
  <text x="1372" y="823" text-anchor="middle" font-size="28" font-weight="700" fill="#111827">Shopify</text>
  <text x="1372" y="855" text-anchor="middle" font-size="18" fill="#475569">tools</text>
  <line x1="1470" y1="817" x2="1503" y2="817" stroke="#C77A0A" stroke-width="3" marker-end="url(#aa)"/>
  <rect x="1510" y="772" width="195" height="90" rx="14" fill="#FFFFFF" stroke="#C77A0A" stroke-width="2"/>
  <text x="1607" y="810" text-anchor="middle" font-size="26" font-weight="700" fill="#111827">Memorable</text>
  <text x="1607" y="842" text-anchor="middle" font-size="19" fill="#475569">saves the path</text>

  <!-- feedback loop -->
  <path d="M1705,817 L1790,817 Q1810,817 1810,797 L1810,178 Q1810,160 1790,160 L1070,160 Q1050,160 1050,180 L1050,250" fill="none" stroke="#475569" stroke-width="3" stroke-dasharray="10 7" marker-end="url(#a)"/>
  <rect x="1728" y="610" width="164" height="54" rx="12" fill="#FFFFFF" stroke="#94A3B8" stroke-width="2"/>
  <text x="1810" y="644" text-anchor="middle" font-size="22" font-weight="700" fill="#111827">saved path</text>
  <rect x="1728" y="400" width="164" height="112" rx="12" fill="#FFFFFF" stroke="#94A3B8" stroke-width="2"/>
  <text x="1810" y="434" text-anchor="middle" font-size="22" font-weight="700" fill="#111827">reused ≥3×</text>
  <text x="1810" y="464" text-anchor="middle" font-size="17" fill="#475569">+ shadow-matches</text>
  <text x="1810" y="492" text-anchor="middle" font-size="17" fill="#475569">the agent</text>
  <rect x="1728" y="246" width="164" height="54" rx="12" fill="#FFFFFF" stroke="#94A3B8" stroke-width="2"/>
  <text x="1810" y="280" text-anchor="middle" font-size="22" font-weight="700" fill="#111827">compiled plan</text>

  <text x="960" y="1030" text-anchor="middle" font-size="22" fill="#64748B">Support AGI · Northwind Outfitters demo · QM · GBrain · Memorable · River</text>
</svg>
